<mxfile host="app.diagrams.net" modified="2023-06-23T14:17:19.703Z" agent="Mozilla/5.0 (Windows NT 10.0; Win64; x64) AppleWebKit/537.36 (KHTML, like Gecko) Chrome/114.0.0.0 Safari/537.36" version="21.5.0" etag="OWXOWCCICm5bOeuZYePt" type="github">
  <diagram name="第 1 页" id="xMVqBZP8iX18Hl0Mr2b7">
    <mxGraphModel>
      <root>
        <mxCell id="0" />
        <mxCell id="1" parent="0" />
      </root>
    </mxGraphModel>
  </diagram>
</mxfile>
